<?xml version="1.0" encoding="UTF-8" standalone="no"?><!DOCTYPE svg PUBLIC "-//W3C//DTD SVG 1.1//EN" "http://www.w3.org/Graphics/SVG/1.1/DTD/svg11.dtd"><svg width="100%" height="100%" viewBox="0 0 419 53" version="1.1" xmlns="http://www.w3.org/2000/svg" xmlns:xlink="http://www.w3.org/1999/xlink" xml:space="preserve" xmlns:serif="http://www.serif.com/" style="fill-rule:evenodd;clip-rule:evenodd;stroke-linejoin:round;stroke-miterlimit:2;"><g transform="matrix(1,0,0,1,-474.922,-821.456)"><rect id="Artboard1" x="0" y="0" width="1536" height="2048" style="fill:none;"/><g id="Artboard11" serif:id="Artboard1"><g transform="matrix(0.991277,0,0,1,4.14278,172.827)"><path d="M517.834,690.454L517.834,699.893L506.53,699.893L506.53,678.149L486.298,678.149L486.298,699.893L474.922,699.893L474.922,649.493L486.298,649.493L486.298,668.357L506.53,668.357L506.53,649.493L517.834,649.493L517.834,658.932C517.31,659.852 516.828,660.809 516.39,661.806C514.71,665.62 513.842,669.912 513.842,674.693C513.842,679.474 514.71,683.766 516.39,687.58C516.828,688.576 517.31,689.534 517.834,690.454Z"/><path d="M522.834,660.323C523.955,658.572 525.276,657.001 526.798,655.613C529.27,653.357 532.078,651.629 535.222,650.429C538.366,649.229 541.666,648.629 545.122,648.629C548.578,648.629 551.89,649.229 555.058,650.429C558.226,651.629 561.046,653.357 563.518,655.613C565.001,656.966 566.298,658.493 567.41,660.192L567.41,680.093C567.41,682.767 567.715,685.301 568.317,687.695C567.024,690.007 565.424,692.033 563.518,693.773C561.046,696.029 558.226,697.757 555.058,698.957C551.89,700.157 548.578,700.757 545.122,700.757C541.666,700.757 538.366,700.157 535.222,698.957C532.078,697.757 529.27,696.029 526.798,693.773C525.276,692.385 523.955,690.814 522.834,689.062L522.834,660.323ZM545.122,690.461C547.474,690.461 549.778,689.885 552.034,688.733C554.29,687.581 556.15,685.841 557.614,683.513C559.078,681.185 559.81,678.245 559.81,674.693C559.81,671.093 559.066,668.129 557.578,665.801C556.09,663.473 554.218,661.745 551.962,660.617C549.706,659.489 547.426,658.925 545.122,658.925C542.818,658.925 540.55,659.489 538.318,660.617C536.086,661.745 534.238,663.473 532.774,665.801C531.31,668.129 530.578,671.093 530.578,674.693C530.578,678.245 531.298,681.185 532.738,683.513C534.178,685.841 536.014,687.581 538.246,688.733C540.478,689.885 542.77,690.461 545.122,690.461Z"/><path d="M522.834,689.062C522.133,687.968 521.51,686.802 520.966,685.565C519.55,682.349 518.842,678.725 518.842,674.693C518.842,670.661 519.55,667.037 520.966,663.821C521.51,662.584 522.133,661.418 522.834,660.323L522.834,689.062Z"/><path d="M573.674,688.206C572.831,685.699 572.41,682.994 572.41,680.093L572.41,658.774C572.968,659.733 573.482,660.734 573.949,661.778C575.66,665.6 576.546,669.901 576.546,674.693C576.546,679.485 575.66,683.786 573.949,687.608C573.859,687.809 573.767,688.009 573.674,688.206Z"/><path d="M572.41,658.774L572.41,649.493L583.714,649.493L583.714,680.165C583.714,683.429 584.506,685.937 586.09,687.689C587.674,689.441 590.002,690.317 593.074,690.317C596.098,690.317 598.438,689.441 600.094,687.689C601.75,685.937 602.578,683.429 602.578,680.165L602.578,649.493L613.882,649.493L613.882,652.162C613.852,652.201 613.823,652.241 613.794,652.281C611.65,655.237 610.459,658.898 610.394,663.315L610.394,663.352C610.394,666.121 610.984,668.79 612.187,671.392C612.634,672.357 613.197,673.308 613.882,674.237L613.882,679.629L609.328,679.629L609.533,684.826C609.637,687.444 610.084,689.803 610.844,691.913C609.733,693.662 608.405,695.122 606.862,696.293C604.774,697.877 602.494,699.017 600.022,699.713C597.55,700.409 595.162,700.757 592.858,700.757C588.154,700.757 584.29,699.821 581.266,697.949C578.242,696.077 576.01,693.581 574.57,690.461C574.231,689.728 573.933,688.977 573.674,688.206C573.767,688.009 573.859,687.809 573.949,687.608C575.66,683.786 576.546,679.485 576.546,674.693C576.546,669.901 575.66,665.6 573.949,661.778C573.482,660.734 572.968,659.733 572.41,658.774Z"/><path d="M618.6,684.629C618.226,687.493 617.486,690 616.426,692.16C616.425,692.163 616.423,692.166 616.422,692.169C615.276,690.063 614.645,687.55 614.53,684.629L618.6,684.629Z"/><path d="M618.882,672.453C617.949,671.438 617.231,670.385 616.726,669.293C615.838,667.373 615.394,665.405 615.394,663.389C615.442,660.125 616.258,657.401 617.842,655.217C618.166,654.77 618.513,654.345 618.882,653.943L618.882,672.453Z"/><path d="M618.882,653.943C620.313,652.382 622.078,651.163 624.178,650.285C626.818,649.181 629.77,648.629 633.034,648.629C636.298,648.629 639.286,649.193 641.998,650.321C644.503,651.363 646.569,652.867 648.194,654.831L648.194,663.533L638.938,663.533C638.89,662.237 638.338,661.013 637.282,659.861C636.226,658.709 634.666,658.133 632.602,658.133C631.114,658.181 629.854,658.601 628.822,659.393C627.79,660.185 627.274,661.301 627.274,662.741C627.274,663.989 627.802,665.069 628.858,665.981C629.914,666.893 631.414,667.733 633.358,668.501C635.302,669.269 637.57,670.085 640.162,670.949C642.13,671.621 643.87,672.401 645.382,673.289C646.443,673.912 647.38,674.607 648.194,675.372L648.194,695.585C646.886,696.906 645.313,697.994 643.474,698.849C640.738,700.121 637.594,700.757 634.042,700.757C630.49,700.757 627.262,700.169 624.358,698.993C621.454,697.817 619.126,696.041 617.374,693.665C617.024,693.191 616.707,692.693 616.422,692.169C616.423,692.166 616.425,692.163 616.426,692.16C617.486,690 618.226,687.493 618.6,684.629L626.482,684.629C626.674,686.309 627.358,687.821 628.534,689.165C629.71,690.509 631.498,691.181 633.898,691.181C635.962,691.181 637.51,690.725 638.542,689.813C639.574,688.901 640.09,687.701 640.09,686.213C640.09,685.541 639.982,684.917 639.766,684.341C639.55,683.765 639.13,683.201 638.506,682.649C637.882,682.097 636.934,681.533 635.662,680.957C634.39,680.381 632.698,679.757 630.586,679.085C626.65,677.837 623.578,676.373 621.37,674.693C620.418,673.969 619.588,673.222 618.882,672.453L618.882,653.943Z"/><path d="M653.194,668.533L653.194,653.18C655.084,656.023 656.118,659.436 656.177,663.459L656.252,668.533L653.194,668.533Z"/><path d="M653.194,673.412C654.486,674.984 655.482,676.749 656.178,678.709C656.881,680.692 657.258,682.926 657.258,685.421C657.258,689.566 656.163,693.18 654.058,696.288C653.783,696.694 653.495,697.088 653.194,697.47L653.194,673.412Z"/><path d="M653.194,653.18L653.194,649.493L679.52,649.493L682.85,659.285L664.57,659.285L664.57,668.429L682.93,668.429L682.93,678.221L664.57,678.221L664.57,690.101L686.314,690.101L686.314,699.893L653.194,699.893L653.194,697.47C653.495,697.088 653.783,696.694 654.058,696.288C656.163,693.18 657.258,689.566 657.258,685.421C657.258,682.926 656.881,680.692 656.178,678.709C655.482,676.749 654.486,674.984 653.194,673.412L653.194,668.533L656.252,668.533L656.177,663.459C656.118,659.436 655.084,656.023 653.194,653.18Z"/><path d="M684.802,649.493L686.314,649.493L686.314,653.94L684.802,649.493Z"/><path d="M686.314,649.493L691.314,649.493L691.314,664.285L689.831,664.285L686.314,653.94L686.314,649.493Z"/><path d="M691.314,649.493L696.394,649.493L708.85,689.165L712.738,675.701L703.522,649.493L714.898,649.493L720.442,666.989L725.842,649.493L737.29,649.493L728.002,675.701L731.818,689.165L744.346,649.493L750.362,649.493L750.362,665.893L738.802,699.893L725.122,699.893L720.442,684.701L715.546,699.893L701.938,699.893L689.831,664.285L691.314,664.285L691.314,649.493Z"/><path d="M771.738,649.493L801.698,649.493L801.698,659.285L792.298,659.285L792.298,699.893L780.994,699.893L780.994,659.285L771.738,659.285L771.738,649.493Z"/><path d="M766.738,664.285L766.738,699.893L755.362,699.893L755.362,666.72L761.219,649.493L761.522,649.493L761.522,664.285L766.738,664.285Z"/><path d="M755.938,649.493L761.219,649.493L755.362,666.72L755.362,651.187L755.938,649.493Z"/><path d="M755.362,649.493L755.938,649.493L755.362,651.187L755.362,649.493Z"/><path d="M761.522,649.493L766.522,649.493L766.522,659.285L766.738,659.285L766.738,664.285L761.522,664.285L761.522,649.493Z"/><rect x="766.522" y="649.493" width="0.216" height="9.792"/><path d="M806.698,649.493L818.074,649.493L818.074,668.357L838.306,668.357L838.306,649.493L849.694,649.493L849.694,699.893L838.306,699.893L838.306,678.149L818.074,678.149L818.074,699.893L806.698,699.893L806.698,649.493Z"/><rect x="806.698" y="649.493" width="0.144" height="9.792"/><g transform="matrix(1,0,0,1,2.63914,0)"><path d="M863.434,699.893L852.058,699.893L852.058,649.493L863.434,649.493L863.434,666.557L878.986,649.493L892.954,649.493L875.314,668.645L894.97,699.893L881.794,699.893L867.826,676.637L863.434,681.461L863.434,699.893Z"/></g></g></g></g></svg>